<svg xmlns="http://www.w3.org/2000/svg" version="1.1" xmlns:xlink="http://www.w3.org/1999/xlink" xmlns:svgjs="http://svgjs.dev/svgjs" viewBox="0 0 0.7807463671316703 0.8801606817514297"><g transform="matrix(1,0,0,1,0.3664504540736477,0.3111051116908831)"><g><path d=" M 0.032850000000000004 0.10500000000000004 L 0.020100000000000003 0.10500000000000004 L 0.020100000000000003 0.01410000000000003 L 0.00855 0.026100000000000026 L 0.0045000000000000005 0.02190000000000003 L 0.025650000000000003 2.7755575615628914e-17 L 0.032850000000000004 2.7755575615628914e-17 L 0.032850000000000004 0.10500000000000004 Z" fill="#ffffff" fill-rule="nonzero"></path></g><g><path d=" M 0.015298022460937501 0.15581280968166022 L 0.015298022460937501 0.15108780968166025 L 0.028048022460937502 0.15108780968166025 L 0.028048022460937502 0.20486280968166024 L 0.022723022460937502 0.20486280968166024 L 0.022723022460937502 0.15581280968166022 L 0.015298022460937501 0.15581280968166022 Z" fill="#ffffff" fill-rule="nonzero"></path></g><g clip-path="url(&quot;#SvgjsClipPath1009&quot;)"><g clip-path="url(&quot;#SvgjsClipPath1008&quot;)"><path d=" M 0.023923752441588786 -0.24204954163033654 L -0.2973948840131011 -0.05653766769745311 L -0.2973948840131011 0.3144881260671165 L 0.023923752441588786 0.4999979541011972 L 0.3452444347950816 0.3144881260671165 L 0.3452444347950816 -0.05653766769745311 Z M 0.32272522667399783 0.3014946227713047 L 0.13852681977243408 0.4078445343321444 L 0.13852681977243408 0.3144881260671165 L 0.32272522667399783 0.2081382145062768 Z M 0.023923752441588786 0.4740150393071788 L -0.16027670035877764 0.3676651277463391 L -0.07942891737332672 0.3209818088668184 L 0.10476948952823711 0.4273337663264609 Z M -0.19403403060297486 0.34817180395441727 L -0.2748797676896229 0.3014946227713047 L -0.2748797676896229 0.08879479964962511 L -0.19403403060297486 0.1354719808327377 Z M -0.2748797676896229 -0.04354416440164122 L -0.0906813607880591 -0.149894075962481 L -0.0906813607880591 -0.05653766769745311 L -0.2748797676896229 0.049812243863386674 Z M -0.07942891737332672 -0.037048435703136595 L 0.0014188656121242316 0.009630791378778703 L -0.18278158718824244 0.11598274883842113 L -0.26362937017369337 0.06930352175650584 Z M 0.023923752441589008 -0.21606458093751546 L 0.2081221593431528 -0.10971262347787297 L 0.12727437635770167 -0.0630333963959577 L -0.056924030543861914 -0.16938535385560016 Z M 0.11602397884177235 0.18214916201585024 L 0.023923752441589008 0.23532411779627016 L -0.06817851985739695 0.1821491620158503 L -0.06817851985739695 0.07580129635381322 L 0.023923752441589008 0.0226263405733933 L 0.11602397884177235 0.07580129635381322 Z M 0.13852886567123718 0.16915770461884105 L 0.13852886567123718 -0.04354416440164122 L 0.21937664865668804 -0.09022134558475381 L 0.21937664865668804 0.12247847753692581 Z M -0.0681764739585943 -0.149894075962481 L 0.11602193294296925 -0.04354416440164122 L 0.11602193294296925 0.049812243863386674 L -0.0681764739585943 -0.05653766769745311 Z M -0.0906813607880591 0.08879479964962511 L -0.0906813607880591 0.3014946227713047 L -0.17152914377351003 0.34817180395441727 L -0.17152914377351003 0.1354719808327377 Z M 0.11602193294296925 0.4078445343321444 L -0.06817647395859452 0.30149462277130457 L -0.06817647395859452 0.2081382145062768 L 0.11602193294296925 0.3144881260671165 Z M 0.23062704617261742 0.14196566363243956 L 0.31147482915806834 0.1886448907143548 L 0.12727437635770167 0.2949988940728 L 0.04642863927105362 0.2483196669908847 Z M 0.32272522667399783 0.16915565872003835 L 0.24187948958734984 0.12247643163812305 L 0.24187948958734984 -0.09022134558475381 L 0.32272522667399783 -0.04354416440164122 Z" fill="#09af2f" transform="matrix(1,0,0,1,0,0)" fill-rule="nonzero"></path></g></g></g><defs><clipPath id="SvgjsClipPath1009"><path d=" M -0.2973948840131011 -0.24204954163033654 h 0.6426352270105772 v 0.7420495416303365 h -0.6426352270105772 Z"></path></clipPath><clipPath id="SvgjsClipPath1008"><path d=" M -0.2973948840131011 -0.24204954163033654 L 0.3452403429974761 -0.24204954163033654 L 0.3452403429974761 0.5 L -0.2973948840131011 0.5 Z"></path></clipPath></defs></svg>